<?xml version="1.0" encoding="UTF-8" standalone="no"?>
<!-- Created with Inkscape (http://www.inkscape.org/) -->

<svg
   version="1.1"
   id="svg3458"
   width="980.32617"
   height="1080.0082"
   sodipodi:docname="f1.svg"
   inkscape:version="1.2.2 (732a01da63, 2022-12-09, custom)"
   xmlns:inkscape="http://www.inkscape.org/namespaces/inkscape"
   xmlns:sodipodi="http://sodipodi.sourceforge.net/DTD/sodipodi-0.dtd"
   xmlns="http://www.w3.org/2000/svg"
   xmlns:svg="http://www.w3.org/2000/svg">
   <symbol id="grapes"   viewBox="0 0 980.32617 1080.0082">
  <defs
     id="defs3462" />
  <sodipodi:namedview
     id="namedview3460"
     pagecolor="#ffffff"
     bordercolor="#000000"
     borderopacity="0.25"
     inkscape:showpageshadow="2"
     inkscape:pageopacity="0.0"
     inkscape:pagecheckerboard="0"
     inkscape:deskcolor="#d1d1d1"
     showgrid="false"
     inkscape:zoom="0.75181604"
     inkscape:cx="489.48145"
     inkscape:cy="534.70527"
     inkscape:window-width="1920"
     inkscape:window-height="1031"
     inkscape:window-x="0"
     inkscape:window-y="25"
     inkscape:window-maximized="1"
     inkscape:current-layer="layer2" />
  <g
     inkscape:groupmode="layer"
     id="layer2"
     inkscape:label="Layer 1"
     transform="translate(-24,-15.827838)">
    <path
       style="fill:#000000;stroke-width:1.33333"
       d="m 326.77213,1093.8866 c -8.3514,-3.0332 -14.58778,-7.2539 -20.97728,-14.1971 l -5.53848,-6.0185 -9.22813,0.6603 c -37.38579,2.6749 -64.19167,-35.6897 -48.40417,-69.2762 l 2.84234,-6.04682 -4.08876,-8.04616 c -4.86961,-9.58276 -7.27805,-21.27722 -6.14345,-29.83024 0.79287,-5.97687 0.65257,-6.31774 -3.71007,-9.01399 -10.13756,-6.26536 -20.26318,-20.29501 -24.07685,-33.35992 -9.72296,-33.30908 14.80859,-69.78764 49.08409,-72.98833 7.52574,-0.70277 8.78672,-1.17087 7.9971,-2.96867 -9.6845,-22.04929 -7.08396,-42.18903 7.48906,-57.99891 5.45167,-5.91436 19.4355,-14.13542 24.04404,-14.13542 1.69212,0 2.53115,-1.52596 3.16572,-5.75761 1.11626,-7.44372 7.38576,-20.4002 12.51608,-25.86556 5.45911,-5.81563 15.74955,-12.19271 22.3884,-13.87428 l 5.4651,-1.38428 -1.23384,-6.78845 c -3.54351,-19.49599 7.55036,-40.82284 26.27112,-50.50357 4.77864,-2.47111 8.51022,-4.79291 8.29242,-5.15958 -5.57729,-9.38904 -6.92462,-14.57689 -6.92557,-26.66666 -8.7e-4,-10.93098 0.48507,-13.70355 3.54621,-20.23354 4.41519,-9.41843 12.57762,-18.40865 20.50106,-22.58017 5.43414,-2.86096 5.94485,-3.52664 5.0019,-6.51962 -0.5776,-1.83334 -1.04773,-9.33334 -1.04476,-16.66667 0.005,-11.63685 0.45607,-14.29611 3.54722,-20.9002 1.94798,-4.16177 6.04741,-10.28513 9.10985,-13.60748 3.06243,-3.32235 5.17412,-6.67801 4.69265,-7.45704 -1.15029,-1.86123 -11.16918,6.70177 -14.74148,12.59932 l -2.71966,4.48996 -7.28034,-4.53216 c -4.00417,-2.49269 -7.58032,-4.54111 -7.94698,-4.55201 -0.36667,-0.0107 -2.038,2.38146 -3.71408,5.31641 -1.67608,2.93496 -5.41415,6.83033 -8.30684,8.6564 -6.25802,3.95052 -6.63104,4.00549 -6.69582,0.9868 -0.0372,-1.73203 -1.15388,-1.09497 -4.33333,2.472 -2.3558,2.64293 -6.68327,6.50656 -9.6166,8.58583 -2.93333,2.07928 -7.58333,5.88864 -10.33333,8.46526 l -5,4.68478 v -6.78956 c 0,-4.64542 -0.78734,-7.76187 -2.49315,-9.86846 l -2.49315,-3.07892 -4.35156,3.6616 c -4.93268,4.15058 -12.31648,8.08632 -17.50609,9.33118 -2.99,0.71721 -3.75275,0.25752 -5.14344,-3.09994 -2.78789,-6.73056 -4.51109,-7.29378 -10.93701,-3.57477 -3.15824,1.82784 -11.14227,4.94761 -17.74227,6.93283 -6.6,1.98521 -14.83005,5.03494 -18.28901,6.77716 -3.45895,1.74222 -6.65663,3.16768 -7.10594,3.16768 -0.44932,0 -0.36649,-1.95 0.18404,-4.33334 0.55055,-2.38333 1.06035,-11.83333 1.13291,-21 0.0725,-9.16666 0.66008,-17.78465 1.3056,-19.15109 1.07756,-2.28099 0.72051,-2.40787 -4.36031,-1.54947 -4.20328,0.71014 -5.52761,0.50602 -5.50754,-0.8489 0.0507,-3.42332 2.58077,-19.41075 3.41649,-21.58863 0.69757,-1.81781 -0.0962,-2.19524 -4.61677,-2.19524 h -5.45918 l 3.27171,-7.39789 c 1.79943,-4.06885 4.53272,-9.16885 6.07397,-11.33333 l 2.80228,-3.93544 h -4.85976 -4.85976 l 4.15019,-3.49216 c 3.59932,-3.02863 8.05441,-9.54164 8.05441,-11.77496 0,-0.40308 -1.06692,-0.73288 -2.37093,-0.73288 -1.98181,0 -1.21323,-2.35147 4.68309,-14.32787 4.66438,-9.47412 6.5085,-14.50969 5.44368,-14.86463 -0.88568,-0.29522 -2.54308,0.88812 -3.68309,2.62967 -3.43315,5.24469 -9.47709,11.76513 -13.67815,14.75655 -3.92388,2.79405 -3.99208,2.7964 -7.39722,0.25409 -3.40468,-2.54196 -3.54782,-2.53723 -15.29518,0.50584 -6.52208,1.68949 -14.12981,4.23063 -16.90608,5.64697 l -5.04776,2.57518 -3.45833,-7.5879 c -1.90207,-4.17334 -3.76796,-9.0879 -4.1464,-10.92124 -0.66055,-3.19996 -1.03321,-3.31562 -9.31444,-2.89072 -7.19187,0.36902 -11.62731,-0.49673 -26.67277,-5.20621 l -18.04643,-5.64883 3.27834,-3.89608 c 3.44978,-4.09984 4.53213,-10.6577 1.61167,-9.76502 -0.91666,0.2802 -3.61666,0.84636 -6,1.25816 -3.74636,0.64729 -4.33333,0.37094 -4.33333,-2.04014 0,-2.25382 -0.57553,-2.6266 -3,-1.94314 -1.65,0.46514 -6.65954,1.21344 -11.13231,1.66288 -7.75086,0.77884 -8.17216,0.66829 -8.9818,-2.35686 -0.46721,-1.74572 -0.85767,-4.51261 -0.86768,-6.14864 -0.0132,-2.15546 -1.027922,-3.19477 -3.684877,-3.77414 -2.016666,-0.43976 -7.263688,-1.81802 -11.660048,-3.06279 -6.919958,-1.95931 -8.083796,-2.75476 -8.666666,-5.92348 -0.576598,-3.13461 -2.583239,-4.55556 -13.973251,-9.89472 C 50.518767,381.63935 47.476032,380.77195 39.366701,380.57527 31.221145,380.37772 24,379.15938 24,377.98263 c 0,-0.20515 1.741039,-4.65124 3.868976,-9.88019 4.651164,-11.42924 9.210673,-17.68104 16.331969,-22.39369 4.231128,-2.80003 5.141186,-4.08419 4.451146,-6.28087 -2.143327,-6.82309 -2.162692,-8.95876 -0.109654,-12.09209 2.061224,-3.14583 2.044739,-3.3358 -0.289477,-3.3358 -4.811036,0 -4.127969,-1.78592 2.604167,-6.80877 3.74461,-2.79386 7.441589,-5.2908 8.215508,-5.54878 3.003924,-1.0013 -0.534834,-4.9077 -5.707635,-6.30058 l -5.438989,-1.46458 6.997865,-5.97326 c 3.848825,-3.28531 9.214803,-6.63748 11.924393,-7.4493 4.599866,-1.37816 4.880134,-1.76192 4.226828,-5.78777 -0.55446,-3.41673 -0.08593,-4.74164 2.257147,-6.38279 4.002476,-2.80345 2.675388,-4.31865 -6.812424,-7.77807 l -8.057976,-2.93808 7.603821,-3.09358 c 4.182102,-1.70146 8.278187,-3.65017 9.102411,-4.33048 0.824225,-0.68029 3.579368,-1.77414 6.122539,-2.43078 3.316862,-0.8564 4.835552,-2.11531 5.372513,-4.45354 0.494419,-2.15296 2.884184,-4.39134 7.038859,-6.59297 7.183493,-3.80665 7.729703,-5.98985 4.13676,-16.53456 -1.217702,-3.57376 -1.654279,-6.82513 -1,-7.44744 0.638689,-0.60748 6.459063,-2.96004 12.934153,-5.22792 8.57893,-3.00473 14.16247,-4.12341 20.58074,-4.12341 7.01645,0 9.39385,-0.55055 11.68924,-2.70695 l 2.88141,-2.70696 6.22578,2.66868 c 4.89484,2.09817 6.89432,2.36408 9.35304,1.24381 3.66157,-1.66833 5.68806,-0.77608 24.83022,10.93251 17.83958,10.91185 27.01199,14.85664 35.02279,15.06228 l 6.75064,0.17329 1.70155,-6.56749 c 1.88212,-7.26449 1.04214,-10.15857 -3.88552,-13.38731 -6.10995,-4.00338 -28.56962,-11.70358 -37.58946,-12.8874 -14.08029,-1.84794 -23.76853,-5.55924 -41.35834,-15.84316 -8.78624,-5.1369 -17.02499,-9.6746 -18.30832,-10.08374 -2.4835,-0.7918 -3.23842,-3.2309 -1,-3.2309 0.73333,0 1.33333,-0.6097 1.33333,-1.3549 0,-1.51934 -6.28273,-4.4785 -13.33333,-6.27999 L 110,167.17273 l 3.7779,-2.01524 3.77789,-2.01524 -8.44456,-4.24136 c -4.64451,-2.33275 -9.632806,-5.15699 -11.085102,-6.27609 -2.59198,-1.9973 -2.570533,-2.09054 1.166283,-5.07018 l 3.806819,-3.03545 -6.834394,-7.01661 C 86.245201,127.31845 85.709164,125.89695 90.796399,123.26624 l 4.174513,-2.15872 -4.007589,-4.22043 C 88.759148,114.56586 84.125653,108.16666 80.666667,102.66666 77.20768,97.166664 72.570988,90.764173 70.362905,88.438905 l -4.014696,-4.227758 6.492563,-0.950296 c 3.570908,-0.522664 12.134388,-2.675724 19.029953,-4.784577 6.895567,-2.108855 15.745565,-4.211339 19.666665,-4.672187 3.9211,-0.460848 7.18741,-1.505297 7.25847,-2.320997 0.071,-0.815701 0.0328,-3.626675 -0.0849,-6.246609 -0.19999,-4.449944 0.13084,-4.866857 5.0255,-6.333333 2.88176,-0.863399 9.15577,-1.569816 13.94223,-1.569816 6.72746,0 8.88744,-0.481536 9.51681,-2.121644 0.90505,-2.35856 -2.40451,-10.228692 -5.31833,-12.646955 -3.11522,-2.585394 -2.1853,-4.267071 1.78948,-3.236098 2.01666,0.523081 9.36666,1.429517 16.33333,2.014302 6.96667,0.584786 13.71667,1.486048 15,2.002806 1.64401,0.66199 2.33333,0.306566 2.33333,-1.203092 0,-3.189728 12.61956,-2.898863 19.17227,0.441897 l 5.06944,2.584549 3.90012,-8.601541 c 3.8606,-8.514369 3.93208,-8.58061 7.05211,-6.53629 1.73357,1.135886 6.97413,2.672545 11.64568,3.414796 4.67154,0.74225 11.149,2.625021 14.39433,4.183933 4.19733,2.016214 7.9658,2.738721 13.05505,2.502977 5.28506,-0.244815 8.37934,0.391291 11.84227,2.434476 2.57831,1.521236 5.21203,2.765884 5.85272,2.765884 1.825,0 10.62732,-18.517558 11.55247,-24.30309 l 0.83189,-5.202404 5.48249,0.844533 c 9.71051,1.495823 18.68808,4.857122 23.92063,8.95613 5.01831,3.931179 5.13644,3.953766 6.97205,1.333066 1.79011,-2.555745 2.27802,-2.27266 11.81116,6.852948 6.19359,5.928813 10.30886,11.027409 10.91155,13.518817 0.5322,2.2 2.4,6.174836 4.15068,8.832968 1.76317,2.677101 3.82493,8.70663 4.62201,13.516847 l 1.43898,8.683881 3.7319,-4.250413 c 2.05255,-2.337728 4.71974,-6.719209 5.92706,-9.736626 1.37988,-3.448658 5.1481,-8.054617 10.14613,-12.401765 4.37304,-3.803555 9.69992,-9.977811 11.83749,-13.720569 3.27003,-5.725609 4.02854,-6.391493 4.78191,-4.198003 3.9424,11.478435 7.24188,16.55839 12.49571,19.238697 5.28148,2.694412 5.63825,2.712796 9.40978,0.484901 3.83186,-2.26353 3.99903,-2.242118 7.42146,0.950527 1.9257,1.796421 4.94604,6.104436 6.71184,9.573364 l 3.21053,6.307142 5.49072,-2.86192 c 7.43951,-3.87769 9.41189,-2.395144 11.41189,8.577821 0.87322,4.790838 2.52512,10.954251 3.6709,13.696475 2.03932,4.880782 2.20797,4.971799 8.0025,4.318671 6.43552,-0.725376 7.40562,0.170104 7.40562,6.83601 0,4.58818 -6.52311,14.98025 -11.89706,18.95337 -2.25661,1.66839 -4.10294,3.41804 -4.10294,3.88811 0,0.47007 3,2.2598 6.66666,3.97718 C 457,129.71737 460,131.54666 460,132.06508 c 0,0.51842 -0.9,3.09658 -2,5.72926 -1.1,2.63267 -2,6.53918 -2,8.68111 0,3.43816 0.58041,4.00332 4.95392,4.8238 11.70828,2.19648 15.73855,7.13077 13.09648,16.03408 -2.17796,7.33936 -7.1994,14.78726 -15.24828,22.61654 C 453.83065,194.7857 452,197.56671 452,200.28321 c 0,2.04422 0.19491,3.71678 0.43313,3.71678 0.23822,0 4.763,-1.47268 10.05507,-3.27264 23.54741,-8.00898 55.77883,-12.25318 81.5118,-10.73338 36.59092,2.16108 69.24552,10.4646 127.66667,32.46349 8.04377,3.02893 11,3.66059 11,2.35032 0,-0.98549 -0.90011,-6.95344 -2.00026,-13.26209 -2.56586,-14.71376 -8.53612,-31.01974 -15.31764,-41.83562 C 662.40695,165.01816 660,160.06001 660,158.69196 c 0,-3.46266 5.81204,-10.01444 10.66807,-12.02587 10.50942,-4.35316 32.18732,1.15105 52.20606,13.25559 11.8583,7.17023 13.40132,9.68721 14.53276,23.70577 0.8598,10.65309 4.2306,27.37 6.52759,32.37254 0.88947,1.93716 21.97952,9.65423 31.01832,11.34992 l 4.45341,0.83547 1.62012,-16.42603 c 3.59967,-36.49605 14.5572,-58.36437 33.47714,-66.81147 13.69982,-6.11652 35.83916,-4.15728 55.45962,4.90793 12.53378,5.79096 20.92958,13.56763 26.19507,24.26336 9.10821,18.50141 6.71812,28.03814 -11.88412,47.41902 -20.47713,21.33427 -39.89915,34.63368 -57.13333,39.12262 -4.1494,1.08078 -7.71463,2.13533 -7.92274,2.34342 -0.2081,0.20811 2.27842,13.26729 5.52559,29.0204 3.24717,15.75312 5.90825,29.07359 5.91353,29.60105 0.005,0.52747 3.16294,2.97622 7.01704,5.44166 3.85411,2.46544 9.70411,7.49145 13,11.16893 7.12272,7.94735 17.03642,24.88912 19.6401,33.56347 1.02357,3.41013 3.04397,8.60025 4.48976,11.53358 1.44578,2.93333 3.37874,8.01957 4.29546,11.30275 1.25718,4.50245 2.96518,6.86801 6.95032,9.62606 8.25895,5.71587 23.49956,11.59959 34.46054,13.30366 29.26069,4.54905 59.77694,-13.77874 65.05866,-39.07365 1.2345,-5.91216 1.11315,-8.46746 -0.69684,-14.67359 -2.66812,-9.14851 -11.56878,-19.63761 -20.21581,-23.82356 -7.71607,-3.73529 -12.26364,-2.35689 -21.59849,6.54668 -4.99711,4.76623 -8.29202,6.76577 -12.25104,7.43464 -11.23584,1.89829 -22.27756,-2.99895 -27.74927,-12.3074 -3.51232,-5.97516 -3.72419,-7.23695 -3.72419,-22.17981 0,-13.46596 0.34064,-16.06067 2.26939,-17.28618 3.20419,-2.03592 3.78277,-0.99024 5.76365,10.41687 2.87454,16.55321 10.25139,26.04885 20.23408,26.04568 2.63106,-8.3e-4 5.30711,-1.63455 9.06622,-5.53488 7.21872,-7.48993 15.33041,-11.01803 25.33333,-11.01847 9.9618,-4.4e-4 14.75447,2.429 24.99632,12.67086 22.74308,22.74312 23.14498,56.24543 0.9444,78.72855 -8.30148,8.40714 -15.97321,12.7534 -30.64101,17.35904 -8.87548,2.78688 -12.4474,3.12156 -32.63304,3.0577 -19.53798,-0.0619 -23.85504,-0.46848 -31.27611,-2.94612 -4.73519,-1.58092 -8.70635,-2.74864 -8.82479,-2.59495 -0.1184,0.15369 0.38996,7.17945 1.12976,15.61279 l 1.34512,15.33333 5.19318,2.46552 c 8.28713,3.93441 18.05946,14.43721 22.74046,24.44027 11.25612,24.05378 3.28099,52.53699 -18.78597,67.09421 l -7.07411,4.66666 8.96046,0.90766 c 17.72585,1.79556 35.04468,14.452 42.99748,31.42216 3.18858,6.80397 3.59452,9.25124 3.59452,21.67018 0,12.39876 -0.40871,14.872 -3.57342,21.62409 -4.4538,9.50247 -14.29362,20.17867 -23.27841,25.25708 -6.71009,3.7927 -6.87145,4.02999 -7.80132,11.47238 -1.47295,11.78905 -5.51863,20.89006 -12.8542,28.91634 -9.97797,10.9175 -19.73071,14.81718 -45.01171,17.99813 -0.28548,0.0359 -0.16509,3.05398 0.26754,6.70679 2.36926,20.00473 -8.68654,40.99627 -26.28011,49.8978 -4.32143,2.18645 -11.58548,4.37027 -17.25251,5.18668 l -9.78834,1.41016 -1.49652,5.59531 c -2.1161,7.91185 -9.15431,16.53746 -17.65224,21.63352 -7.02055,4.21009 -7.33706,4.65054 -8.92202,12.41581 -2.2418,10.98341 -5.26544,16.8817 -12.03204,23.47125 -5.4878,5.3442 -17.3664,11.08132 -22.94365,11.08132 -1.7556,0 -3.53036,2.20932 -5.85672,7.29076 -4.44969,9.7194 -13.71879,19.37075 -23.15425,24.10909 -6.7188,3.37408 -9.37224,3.90884 -20.75995,4.18388 -12.37991,0.29899 -13.31273,0.52664 -18,4.39287 -10.26411,8.4662 -28.45341,12.43284 -41.21181,8.98729 l -6.93503,-1.87288 -1.39039,6.48319 c -3.34961,15.61868 -13.19408,27.94061 -27.87124,34.8853 -7.53913,3.56724 -10.52793,4.22503 -19.94112,4.38874 l -11.0728,0.19257 -3.9539,6.23468 c -9.48411,14.95488 -24.87116,23.39117 -42.66344,23.39117 h -7.61227 l -0.52164,9.66667 c -0.97117,17.99703 -11.14268,33.24193 -27.57787,41.33343 -7.97144,3.9245 -9.94364,4.3332 -20.91014,4.3332 -11.27588,0 -12.79024,-0.3382 -22.02128,-4.9182 -8.78375,-4.3581 -10.05147,-4.6703 -11.13103,-2.7412 -4.61393,8.2446 -18.38224,18.2851 -30.28253,22.0835 -1.47555,0.471 -2.35494,2.7885 -2.79468,7.3651 -1.39386,14.506 -12.93887,30.1062 -27.40164,37.0264 -9.69379,4.6382 -26.91324,5.7816 -36.21186,2.4044 z m 33.79551,-9.1131 c 25.79915,-12.6224 31.30355,-47.9172 10.54756,-67.6322 -9.16707,-8.7072 -15.49135,-11.1226 -29.1152,-11.1195 -10.41395,0 -12.89232,0.472 -18.75128,3.5535 -32.90743,17.3076 -29.71248,64.8953 5.19455,77.3715 9.64933,3.4487 22.39586,2.5864 32.12437,-2.1733 z m -66.16221,-17.9172 c 1.39718,-0.8862 1.42889,-2.3334 0.16145,-7.3669 -2.33671,-9.2799 -0.97748,-24.23 2.99105,-32.8984 l 3.32518,-7.2632 h -11.44155 c -13.5172,0 -22.77136,-2.7777 -31.52081,-9.4563 -3.26911,-2.4953 -6.49042,-4.537 -7.15847,-4.537 -2.75635,0 -5.76261,13.5986 -5.14248,23.2616 1.11209,17.3286 12.06205,31.5449 28.25075,36.6777 8.59392,2.7249 17.63624,3.4222 20.53488,1.5837 z m 107.22582,-31.0365 c 7.08034,-3.572 14.16735,-11.1258 17.84172,-19.0169 4.50888,-9.6834 4.27892,-10.4198 -2.47297,-7.9196 -8.52121,3.1554 -23.99615,2.7853 -33.32888,-0.7971 -10.48185,-4.0235 -21.68428,-14.46571 -26.54789,-24.74634 -2.08328,-4.40361 -3.78827,-9.02114 -3.78884,-10.2612 -0.003,-6.95976 -7.34079,0.90419 -11.27972,12.08895 -3.77358,10.7152 -3.27658,11.67916 6.93864,13.45807 20.4033,3.55312 36.94665,18.53482 40.95989,37.09352 1.05589,4.8828 2.17979,4.8925 11.67805,0.1007 z m 69.45683,-12.6092 c 13.23432,-4.5094 25.37155,-20.1061 27.11735,-34.84663 1.16978,-9.87697 -0.0788,-13.23845 -6.04872,-16.28405 -2.82368,-1.44054 -7.00623,-4.19456 -9.29455,-6.12006 -3.85848,-3.24669 -5.17033,-3.51757 -18.06609,-3.7304 l -13.9055,-0.22949 -0.8423,6.74188 c -1.14092,9.13193 -6.0096,19.16383 -12.9527,26.68895 -4.12805,4.4741 -6.21272,8.1819 -7.35065,13.0739 -1.8366,7.8955 -1.5274,8.335 9.58841,13.628 8.08496,3.8499 22.21206,4.3294 31.75475,1.0779 z m -164.43124,-14.2521 c 10.19531,-3.7943 21.2206,-14.96814 25.29424,-25.63502 6.80051,-17.8072 2.82343,-36.76234 -10.51108,-50.09684 -10.25635,-10.25635 -19.25715,-13.62129 -34.77333,-13.00001 -13.62576,0.5456 -21.61152,3.93749 -30.7237,13.04965 -9.11216,9.11217 -12.50405,17.09793 -13.04965,30.72369 -0.56979,14.23009 2.59903,23.58915 11.24153,33.20169 13.22975,14.71464 32.80208,19.09584 52.52199,11.75684 z m 114.45148,-9.63142 c 11.97104,-6.51546 20.18536,-18.73352 22.16969,-32.97543 0.9505,-6.82177 1.3543,-6.15489 -9.80514,-16.1932 -6.69584,-6.02315 -11.09171,-12.45728 -13.61986,-19.93508 -2.13306,-6.30922 -2.81516,-7.03781 -8.09122,-8.64273 -18.06448,-5.49499 -40.30058,5.29268 -48.83362,23.69122 -8.1266,17.52222 -1.55158,40.99336 14.44994,51.58267 8.68281,5.74597 14.36342,7.22347 25.97174,6.75477 8.74896,-0.3533 11.96418,-1.1286 17.75847,-4.28222 z m 111.70759,-33.34172 c 13.677,-6.69154 21.95594,-19.47762 22.8688,-35.31872 0.74081,-12.85584 -2.71983,-22.72391 -10.93247,-31.17409 -9.27811,-9.54647 -12.68132,-10.77667 -24.30989,-8.78754 -5.37663,0.9197 -9.76664,1.73731 -9.7556,1.81691 0.0107,0.0796 0.8847,2.54472 1.94146,5.47805 1.05678,2.93334 1.93351,10.13334 1.94828,16 0.0439,17.41479 -6.68601,30.49252 -20.63582,40.10012 -7.95274,5.47725 -7.95715,6.74951 -0.0377,10.87856 12.65914,6.60031 26.73578,6.96448 38.91302,1.00671 z m -182.49648,-5.36728 c -0.17568,-0.13364 -1.96943,-0.6388 -3.9861,-1.12262 -3.49866,-0.83933 -3.66666,-0.65321 -3.66666,4.0619 v 4.94152 l 3.98609,-3.81892 c 2.19235,-2.1004 3.84235,-3.92826 3.66667,-4.06188 z m 134.24821,-9.17792 c 15.13237,-7.40358 24.17805,-23.10352 23.10797,-40.10685 -0.60846,-9.66835 -4.87768,-20.6546 -8.03604,-20.6797 -3.93976,-0.0313 -16.15244,-7.0265 -22.28957,-12.76708 l -6.68351,-6.25164 -8.35922,0.671 c -25.95422,2.08335 -43.80474,28.10102 -36.50584,53.20834 7.30421,25.12559 35.22514,37.4435 58.76621,25.92593 z m -129.99659,-3.77352 c 5.23868,-17.88496 21.02952,-31.24925 40.15251,-33.98232 6.97001,-0.99616 7.29396,-1.22103 7.69259,-5.33983 0.69217,-7.15188 -3.45924,-20.51376 -8.77539,-28.24482 -16.29285,-23.69406 -50.69407,-26.77496 -70.74491,-6.33578 l -5.7708,5.88258 2.10414,7.08542 c 2.15769,7.26572 2.64022,24.55196 0.85421,30.60142 -0.84044,2.84673 0.0487,4.35745 6.09083,10.34869 4.13848,4.10363 8.61425,10.34009 10.78369,15.02578 2.92841,6.325 4.55036,8.26023 7.70875,9.19772 7.21769,2.14239 8.15244,1.74235 9.90438,-4.23886 z M 250.90179,928.47937 c 14.6453,-14.94026 37.7041,-20.21698 56.12961,-12.84456 2.79357,1.11778 5.43292,1.67862 5.8652,1.24634 0.43229,-0.43228 1.08379,-4.9483 1.44779,-10.03558 2.77797,-38.82593 -37.11083,-66.19576 -72.4039,-49.68014 -21.00716,9.83044 -32.7396,32.22814 -28.7057,54.8004 2.09146,11.70312 9.2601,24.05806 17.97536,30.98002 l 6.54348,5.19707 3.21477,-6.40482 c 1.76812,-3.52264 6.23815,-9.48906 9.93339,-13.25873 z m 334.57726,9.46353 c 10.74476,-3.55367 21.4638,-14.73997 24.85932,-25.94293 3.35696,-11.07578 3.1961,-12.86341 -1.47834,-16.42878 l -4.36055,-3.32596 -7.91641,2.68664 c -15.48832,5.25637 -34.14218,0.84233 -45.82899,-10.84448 -5.51384,-5.51384 -6.44985,-5.6589 -11.04952,-1.71224 -2.12828,1.8261 -1.92833,2.23549 2.74539,5.6211 13.8278,10.01682 20.59648,23.4661 20.60608,40.94403 0.005,8.87542 0.40909,11.06084 2.14166,11.5789 3.27192,0.97838 13.43828,-0.31302 20.28136,-2.57628 z M 417.74241,907.08827 c 0.44122,-4.27487 2.45768,-10.95886 4.62588,-15.33334 l 3.84371,-7.75496 h -6.1148 c -3.36315,0 -8.17111,-0.58973 -10.68436,-1.31053 -2.51325,-0.72079 -4.73505,-1.14504 -4.93732,-0.94277 -0.20227,0.20228 0.808,4.14546 2.24503,8.76266 1.43702,4.61719 2.61278,11.54144 2.61278,15.38722 0,7.81752 0.51075,8.77009 4.70235,8.77009 2.57577,0 3.01787,-0.90384 3.70673,-7.57837 z m 237.16252,-12.7161 c 3.43104,-1.44033 7.1703,-3.64868 8.30946,-4.90742 1.90984,-2.11036 1.52933,-2.64608 -4.88434,-6.87671 -13.5967,-8.96877 -21.50494,-23.70113 -21.60758,-40.25301 -0.0307,-4.94907 -0.0989,-8.99907 -0.15162,-9 -0.0527,-9.5e-4 -2.87057,0.94373 -6.26193,2.09928 -5.77365,1.96729 -6.0858,2.31226 -4.90419,5.42013 2.19822,5.78173 1.46027,19.84876 -1.4492,27.62497 -1.49112,3.98539 -5.07393,9.93044 -7.96182,13.21126 -4.89704,5.56333 -5.09611,6.10057 -2.95554,7.97641 9.84219,8.62501 27.73814,10.6362 41.86676,4.70509 z m -62.01666,-5.69688 c 29.77112,-8.84108 36.46798,-47.66997 11.4011,-66.10437 -11.67013,-8.5823 -28.4401,-9.3096 -41.27152,-1.78989 -5.52953,3.24053 -5.79097,3.66044 -4.76744,7.65708 0.5956,2.32569 1.05634,9.32853 1.02386,15.56186 -0.0521,10.00442 -0.55647,12.32786 -4.30096,19.81483 -4.63496,9.26744 -4.50098,10.41355 1.91194,16.35559 4.46622,4.13826 8.5096,6.3519 15.78142,8.63984 7.203,2.26628 12.24921,2.2326 20.2216,-0.13494 z m -67.26128,-6.8859 c 8.49978,-2.6705 18.66349,-12.05878 23.28832,-21.51158 4.93261,-10.08189 5.14672,-24.08462 0.52848,-34.56285 -3.59942,-8.16661 -12.75704,-17.20812 -21.89906,-21.62136 -13.3879,-6.4629 -32.47522,-3.479 -44.29422,6.92451 -9.25923,8.15029 -13.91478,18.77836 -13.91612,31.7689 -9e-4,8.61295 0.60404,11.33127 4.06138,18.25003 9.8863,19.78423 29.94559,27.75412 52.23122,20.75235 z m 172.71057,0.1848 c 3.75185,-1.11419 9.71076,-4.31071 13.242,-7.10339 6.57343,-5.1986 14.98485,-18.30191 12.90164,-20.09819 -0.63132,-0.54437 -3.64072,-1.69788 -6.68753,-2.56334 -6.77063,-1.92323 -18.1819,-11.89439 -22.19339,-19.39254 -2.48125,-4.63789 -2.93361,-7.61458 -2.93361,-19.30427 v -13.82084 l -9.33334,0.61264 c -12.92554,0.84845 -21.63849,5.42178 -27.9585,14.67514 -2.63728,3.86132 -6.11538,8.70102 -7.72911,10.75488 -4.00085,5.09205 -4.86976,20.55903 -1.69239,30.1252 3.79868,11.43673 16.23379,23.0838 28.71334,26.89365 5.60821,1.71214 16.48816,1.3541 23.67089,-0.77894 z m -260.02747,-9.12686 c 15.96034,-8.08772 22.23603,-17.54308 23.57131,-35.51402 1.15925,-15.60193 -1.93307,-23.15307 -13.21473,-32.26897 -12.51791,-10.11483 -17.86448,-12.16224 -29.8844,-11.44396 -23.20946,1.38693 -39.18779,18.09909 -39.36927,41.17733 -0.0711,9.03044 0.42731,11.12532 4.587,19.28314 10.41588,20.42722 34.56535,28.7719 54.31009,18.76648 z m -121.64342,-3.51402 c 2.07398,-2.29174 2.11837,-2.66667 0.3157,-2.66667 -3.77273,0 -6.16149,1.51712 -5.4222,3.44368 0.98584,2.56904 2.25283,2.37625 5.1065,-0.77701 z m 148.26294,-5.05562 c 1.06439,-0.67662 1.17546,-1.66946 0.33334,-2.97957 -1.1098,-1.72656 -1.42215,-1.72229 -2.57587,0.0352 -2.39605,3.64997 -1.24491,5.1614 2.24253,2.94439 z m -138.50908,-8.15216 c 11.34218,-5.78633 19.98779,-17.28464 22.252,-29.59421 l 0.88328,-4.80197 -7.44853,-0.76876 c -9.65277,-0.99625 -20.36508,-5.96645 -27.97187,-12.97815 -6.16524,-5.68292 -14.11873,-19.46446 -14.15582,-24.52876 -0.0448,-6.12305 -1.82658,-6.69112 -9.69214,-3.09014 -20.00764,9.1598 -29.83166,32.08406 -22.29934,52.03529 3.69681,9.79193 6.99977,13.30136 15.34522,16.30445 3.66667,1.31945 9.00246,3.95097 11.85732,5.84784 2.85486,1.89687 6.27979,4.09169 7.61098,4.87737 3.46856,2.0472 16.78085,0.18556 23.6189,-3.30296 z m 49.03143,-2.29722 c -3.97295,-10.35332 -4.29785,-27.58664 -0.67023,-35.54843 2.1372,-4.69064 0.97403,-5.72165 -3.29749,-2.92284 -1.87759,1.23024 -5.94331,2.98368 -9.03492,3.89652 -5.40804,1.5968 -5.67572,1.93312 -7.0612,8.87167 -1.63783,8.20232 -6.14763,17.63982 -10.77163,22.54141 l -3.14454,3.33333 10.93524,-0.45665 c 6.01438,-0.25116 13.0332,0.14473 15.59736,0.87975 6.95857,1.99468 8.39698,1.87981 7.44741,-0.59476 z m 370.83748,-9.63588 c 6.14843,-3.13671 13.24957,-10.7635 15.87736,-17.05266 2.80952,-6.72414 2.33124,-19.44265 -0.99744,-26.52411 -5.74069,-12.2128 -20.82288,-20.49743 -33.77868,-18.55459 -9.012,1.35144 -19.23416,8.09299 -24.00947,15.83435 -3.57493,5.7954 -4.04788,7.7427 -4.04788,16.66666 0,8.64183 0.5351,11.01483 3.6964,16.39271 8.93027,15.19182 27.99427,21.02548 43.25971,13.23764 z M 632.89133,826.47688 c 6.97559,-3.27517 15.81959,-12.76492 19.48651,-20.90934 4.25288,-9.44586 4.02669,-23.97247 -0.52267,-33.56756 -3.80608,-8.02746 -12.86076,-17.76411 -18.36,-19.74286 -5.58536,-2.00972 -20.47929,-4.74118 -24.69284,-4.52852 -2.12538,0.10734 -5.9103,0.87027 -8.41093,1.69556 -4.27385,1.4105 -4.48196,1.75274 -3.469,5.70483 0.59268,2.31237 1.02644,8.40432 0.96391,13.53765 -0.16956,13.92115 -6.81455,27.08242 -17.26743,34.20046 -2.53036,1.72308 -4.60476,3.58288 -4.60977,4.13288 -0.005,0.55 2.58198,1 5.74889,1 13.06083,0 26.52187,6.37497 35.08027,16.61357 5.51634,6.5993 5.87704,6.64117 16.05306,1.86333 z M 468.36885,813.19726 c -3.02832,-1.10267 -3.08922,-1.02399 -2.1089,2.72476 0.7866,3.00798 0.89712,3.03461 2.6493,0.63834 1.59211,-2.17733 1.52226,-2.61206 -0.5404,-3.3631 z m 92.28299,0.7862 5.31851,-3.26662 -7.31851,0.82839 c -8.63129,0.97697 -8.87235,1.11253 -6.67859,3.75585 2.15859,2.60094 2.34464,2.57268 8.67859,-1.31762 z m -202.38177,-1.094 c 3.76816,-0.97744 8.36802,-2.77103 10.2219,-3.98574 l 3.3707,-2.20857 -2.84327,-6.34759 c -4.39711,-9.8165 -4.12909,-26.53136 0.58784,-36.66153 1.95845,-4.20601 5.21067,-9.81035 7.22713,-12.45408 4.39746,-5.76535 3.78092,-7.32011 -5.36501,-13.5294 -12.32873,-8.37012 -28.06268,-9.59163 -41.52319,-3.22365 -26.22842,12.40826 -32.28808,47.00876 -11.78906,67.3154 11.26346,11.15777 25.10849,14.98728 40.11296,11.09516 z m 39.97585,-21.34294 c 8.07767,-4.09326 20.00771,-6.40156 27.66264,-5.35234 l 5.78579,0.79304 -2.61628,-7.74967 c -1.79034,-5.30319 -2.47871,-10.33839 -2.18051,-15.94988 l 0.43577,-8.2002 -8.44924,-1.44399 c -4.64708,-0.7942 -11.60688,-2.98888 -15.46622,-4.87708 -3.85935,-1.8882 -7.6423,-3.43309 -8.40656,-3.43309 -2.89675,0 -14.51344,11.94536 -17.67195,18.17192 -2.50011,4.92864 -3.41255,9.12835 -3.78389,17.41641 -0.4274,9.53926 -0.052,11.87687 2.96553,18.46811 l 3.45488,7.54645 5.87104,-6.04085 c 3.22907,-3.32248 8.80863,-7.52945 12.399,-9.34883 z m 84.96056,10.59604 c 3.74869,-2.48825 10.65927,-5.65596 15.35683,-7.03936 11.46946,-3.37769 14.42008,-7.12173 12.28738,-15.59144 -2.11838,-8.41284 -1.89096,-18.31817 0.58822,-25.62044 2.77608,-8.17672 1.82382,-11.16829 -6.06659,-19.05872 -9.12187,-9.12185 -18.58083,-12.61969 -32.09007,-11.8666 -18.34996,1.02294 -32.14862,11.83143 -37.46974,29.35006 -6.80531,22.40496 4.55468,44.02448 27.25394,51.86777 9.74264,3.36639 12.3986,3.0972 20.14003,-2.04127 z m 86.44904,-1.08858 c 17.58633,-7.52759 26.35351,-30.57584 18.44285,-48.48494 C 581.86487,738.4569 569.30713,730.19222 554,730.1277 c -32.18635,-0.13564 -49.59523,37.11306 -28.53015,61.04425 11.76503,13.36579 27.71363,16.93264 44.18567,9.88203 z m 211.01475,-2.66906 c 5.71216,-5.02804 11.22142,-13.76741 11.30045,-17.92593 0.0161,-0.84755 -3.75577,-3.31224 -8.38195,-5.47708 -8.20585,-3.83999 -17.04282,-11.17549 -20.98236,-17.41729 l -1.95785,-3.10204 -5.72723,5.44818 c -6.54574,6.22682 -16.0004,11.39056 -23.66164,12.92303 L 726,773.88587 l 8.27801,0.97019 c 4.55292,0.53361 10.94671,2.15068 14.20844,3.5935 7.54986,3.33966 15.92063,11.93983 19.06594,19.58843 1.46438,3.56103 3.30952,5.954 4.59322,5.95699 1.1801,0.003 5.01619,-2.52178 8.52466,-5.61006 z m -96.18796,-4.80456 13.14898,-0.56917 4.76642,-5.27585 c 2.62152,-2.90172 7.74737,-6.78642 11.39077,-8.63267 7.16781,-3.6322 6.70669,-5.70971 -1.276,-5.74895 -6.05011,-0.0297 -22.15983,-8.56894 -27.66803,-14.66586 -5.0526,-5.59263 -10.52622,-15.52004 -12.058,-21.86936 l -0.92836,-3.84815 -3.5957,3.34799 c -5.15991,4.8044 -13.46252,9.81725 -19.31951,11.6645 l -5.05712,1.59498 5.50991,5.97754 c 8.28754,8.99094 12.33086,18.94523 13.02258,32.06044 l 0.57748,10.94915 4.1688,-2.20769 c 2.76496,-1.46427 8.59671,-2.39939 17.31778,-2.7769 z M 819.33493,769.2182 c 10.02639,-3.75136 19.48962,-13.27653 23.3471,-23.49993 2.33658,-6.19259 2.79834,-9.69504 2.33601,-17.71829 -0.92649,-16.07797 -9.1852,-28.62396 -23.43021,-35.59339 -6.14196,-3.00498 -9.33706,-3.67892 -17.57192,-3.70637 -8.72706,-0.0291 -11.25178,0.55045 -18.99299,4.35995 -5.08479,2.50225 -10.65599,6.48986 -12.94221,9.26346 -3.9722,4.81896 -4.00551,4.99278 -3.18151,16.60132 0.64013,9.01832 0.29771,13.70784 -1.48067,20.27768 -1.83154,6.76631 -1.98898,9.15243 -0.7559,11.45647 3.42181,6.39372 11.75358,13.95453 19.33737,17.54804 10.14817,4.80862 22.20745,5.17438 33.33493,1.01106 z m -80.0016,-6.87542 c 8.51663,-4.40192 15.71427,-11.87962 19.58094,-20.3428 4.18461,-9.15915 4.28666,-25.29759 0.21602,-34.1632 -4.06002,-8.84251 -11.55261,-16.52849 -20.24848,-20.77115 -6.3023,-3.07486 -9.30942,-3.68694 -18.21514,-3.70758 -8.92794,-0.0207 -11.86476,0.56369 -18.01666,3.58506 -11.07152,5.43755 -15.30313,10.59004 -19.49409,23.73639 -4.71867,14.80162 -4.75341,23.7706 -0.12707,32.79728 4.22152,8.2368 14.98034,18.23268 22.6706,21.06296 8.77367,3.229 25.21364,2.15514 33.6339,-2.19696 z m -306.81494,-20.9642 c 3.55014,-7.41144 13.39169,-16.7924 22.27257,-21.23023 l 7.55844,-3.777 -3.79456,-5.64997 c -6.36503,-9.47728 -9.22151,-18.95829 -9.22151,-30.60723 V 669.6617 l -6.38774,-2.74793 c -20.75907,-8.93032 -43.49258,-1.1621 -54.20642,18.52277 -4.94292,9.08176 -6.15356,22.95033 -2.86716,32.84476 5.55454,16.72316 20.74464,28.20313 37.46132,28.31152 6.46192,0.0419 6.74402,-0.11827 9.18506,-5.21424 z m 167.30929,0.5715 c 0.27489,-0.2749 -2.37479,-3.37441 -5.88819,-6.88781 -31.00685,-31.00685 -13.53709,-83.93789 30.01859,-90.95233 4.61728,-0.7436 8.65595,-1.61287 8.9748,-1.93173 0.31885,-0.31886 -0.95832,-3.61495 -2.83816,-7.32464 -4.78536,-9.44346 -6.97053,-23.29434 -5.28392,-33.49255 0.73465,-4.4421 1.00276,-7.88376 0.5958,-7.64813 -0.40696,0.23563 -3.83515,1.89661 -7.61819,3.69108 l -6.87826,3.26268 0.70952,8.66666 c 1.4258,17.41576 -5.13174,34.73818 -17.62236,46.5513 -8.44222,7.98429 -21.37572,14.51824 -30.99238,15.65718 l -6.68805,0.7921 -0.57139,10.83305 c -0.71956,13.64219 -4.92669,23.34555 -14.52012,33.48916 -6.3631,6.72805 -20.27278,15.34388 -24.77166,15.34388 -2.28879,0 -2.26648,1.50132 0.0697,4.69633 1.77859,2.43236 2.09207,2.32681 7.44044,-2.50512 8.90487,-8.045 16.17884,-10.71533 29.39745,-10.79199 10.2299,-0.0593 12.25142,0.37227 20.29846,4.33383 5.90454,2.90679 10.61097,6.44245 13.87009,10.41979 4.19704,5.12192 5.44509,5.89153 8.36547,5.15857 1.88786,-0.47383 3.6574,-1.08641 3.93229,-1.36131 z m 44.26365,-0.0401 c 26.83992,-7.74603 41.5947,-37.97606 30.63183,-62.75944 -4.08295,-9.23016 -7.35383,-13.02989 -12.92191,-15.01113 -2.82402,-1.00485 -9.18332,-4.52627 -14.13177,-7.82537 l -8.9972,-5.99838 -9.89981,0.63532 c -12.56919,0.80664 -22.16946,5.323 -30.69948,14.44231 -9.61106,10.27499 -12.07206,16.78975 -12.06559,31.94008 0.005,11.22679 0.42121,13.45679 3.66319,19.61744 4.85614,9.228 10.70826,15.71078 18.08474,20.03369 11.72899,6.87364 23.87892,8.52061 36.336,4.92548 z m -254.41474,-1.36431 c 0.43322,-0.43324 -1.20843,-3.40276 -3.64814,-6.59894 -4.55897,-5.9726 -7.9021,-14.56715 -9.31485,-23.94669 -1.6164,-10.73171 4.16615,-28.66922 11.909,-36.94182 1.85757,-1.98465 3.3774,-4.0168 3.3774,-4.51588 0,-0.49906 -3.86145,-0.59744 -8.581,-0.2186 -22.46197,1.80303 -38.11763,19.10151 -38.06525,42.05964 0.0107,4.9225 0.46122,9.60363 1,10.40252 0.53877,0.79889 4.87958,2.20171 9.64625,3.11735 10.18763,1.95697 19.36911,6.60993 25.476,12.91065 4.21775,4.35161 6.52899,5.40336 8.20059,3.73177 z m 133.8466,-19.31372 c 15.26332,-7.31387 24.92965,-22.36398 25.06778,-39.02958 l 0.0757,-9.131 -10.37719,-3.01092 c -6.10899,-1.77251 -13.47743,-5.14612 -17.91472,-8.2022 -7.61872,-5.24721 -17.11389,-16.65245 -20.33229,-24.42236 -1.57771,-3.80892 -2.1668,-4.14643 -5.89763,-3.37895 -29.57819,6.08468 -46.21151,37.9177 -33.85669,64.79531 5.65978,12.31272 9.06046,15.32089 18.53132,16.3924 9.32042,1.05448 20.25573,4.85865 25.18053,8.7598 4.09499,3.24382 8.17769,2.66404 19.52319,-2.7725 z m 331.31684,-14.89861 c 5.52398,-5.95006 8.67513,-12.4221 10.24518,-21.04229 4.37566,-24.02413 -12.31341,-46.41937 -36.44824,-48.91031 -7.95785,-0.82133 -7.33372,-1.55336 -9.33814,10.9526 -1.65658,10.33575 -9.63792,23.17127 -18.755,30.1616 l -4.55823,3.49494 10.34053,0.618 c 7.60954,0.45477 12.38206,1.59004 18.07047,4.29849 8.64432,4.11587 19.57565,14.25543 22.20059,20.59255 0.94948,2.29226 2.28736,4.16776 2.97306,4.16776 0.68571,0 3.05711,-1.95 5.26978,-4.33334 z m 24.29993,-1.87084 c 12.83255,-6.5118 21.80695,-18.85154 23.14599,-31.82557 l 0.7538,-7.30359 h -9.97464 c -5.48604,0 -12.82927,-0.85912 -16.31828,-1.90916 -6.28375,-1.89113 -6.33554,-1.88168 -5.48294,1 3.44095,11.62987 1.49934,27.32023 -4.70053,37.98538 -1.40985,2.42525 -2.56336,4.75193 -2.56336,5.17041 0,1.31965 10.76349,-0.89665 15.13996,-3.11747 z m -109.25284,-9.68022 5.09499,-5.21775 -9.82439,-0.48057 c -5.40341,-0.26432 -10.03844,-0.35228 -10.30007,-0.19547 -0.62014,0.37168 8.25024,11.05603 9.20508,11.08748 0.40118,0.0133 3.02215,-2.32395 5.82439,-5.19369 z M 692.86059,684.3759 c 7.35942,-5.52124 18.49281,-8.62022 29.24166,-8.13942 l 9.61767,0.4302 -4.4512,-4.92035 c -2.44816,-2.7062 -5.46144,-6.9062 -6.6962,-9.33333 -1.23475,-2.42715 -2.42369,-4.618 -2.64211,-4.86856 -0.21842,-0.25058 -4.83466,1.73757 -10.25833,4.41809 -7.76419,3.83727 -12.00761,5.036 -19.95457,5.63703 l -10.09336,0.76336 3.1749,6.81854 c 1.74619,3.7502 3.18076,8.06855 3.18792,9.59632 0.0252,5.3736 1.24919,5.31816 8.87362,-0.40188 z m 93.09353,-6.18338 c 9.66812,-4.4262 18.07351,-12.46428 22.80165,-21.8052 3.50558,-6.92562 3.90804,-9.02498 3.90844,-20.38731 3.8e-4,-10.19969 -0.56526,-13.89164 -2.90424,-18.95631 -4.07218,-8.81762 -14.08246,-19.01719 -22.92725,-23.36079 -6.59567,-3.23908 -9.02579,-3.68212 -20.16605,-3.67648 -11.3133,0.005 -13.43239,0.4089 -19.83326,3.77353 l -7.16657,3.76713 0.83133,6.06527 c 1.80143,13.14289 -3.49254,31.29645 -12.31742,42.23765 -2.29942,2.85084 -4.18075,6.14565 -4.18075,7.3218 0,3.71095 9.11192,15.55048 15.49691,20.13583 13.63428,9.79138 31.61117,11.68162 46.45721,4.88488 z M 568.09133,663.18295 c 22.12979,-6.57097 36.29184,-25.76349 36.29184,-49.18297 0,-15.49068 -3.66277,-24.19013 -14.9279,-35.45526 -11.41296,-11.41298 -19.94722,-14.98031 -36.12194,-15.09906 -10.04006,-0.0737 -12.34962,0.3966 -20.23948,4.12159 -11.9388,5.63657 -20.16409,13.48704 -25.45028,24.29051 -3.98349,8.1411 -4.31024,9.81966 -4.31024,22.14222 0,11.65155 0.44743,14.28777 3.54722,20.9002 11.06249,23.59836 36.85338,35.51519 61.21078,28.28277 z M 403.4,661.45437 c 2.33379,-2.23359 15.67904,-5.45439 22.6,-5.45439 3.76713,0 10.06435,0.95476 13.99381,2.12168 7.08188,2.10309 7.16544,2.09433 9.5368,-1 3.86736,-5.0464 6.47087,-14.34219 6.44898,-23.02587 -0.0247,-9.76649 -1.20384,-12.08025 -5.59502,-10.97814 -5.02492,1.26117 -19.38489,-1.54868 -27.4757,-5.37624 -7.20754,-3.40971 -17.75698,-12.62116 -21.75482,-18.99565 -1.94765,-3.10551 -2.24916,-3.168 -6.59749,-1.36742 -6.29917,2.60839 -14.66203,11.32632 -18.50268,19.28831 -2.54643,5.27896 -3.23367,8.90584 -3.30152,17.42384 -0.0751,9.42829 0.40844,11.71914 3.91431,18.54433 l 4,7.78717 8.55865,0.45876 c 4.70727,0.25232 8.85727,0.75738 9.22223,1.12234 1.05226,1.05226 3.57125,0.77317 4.95245,-0.54872 z m 300.17281,-5.37619 c 11.22932,-5.24739 19.52368,-13.24901 24.76062,-23.88672 4.01492,-8.15547 4.33324,-9.78361 4.33324,-22.16344 0,-11.9027 -0.41836,-14.2671 -3.83223,-21.65786 -4.69544,-10.16534 -15.10017,-20.41354 -25.83092,-25.44232 -6.64332,-3.1133 -9.36596,-3.59452 -20.33685,-3.59452 -11.46351,0 -13.51531,0.40202 -21.60095,4.23253 -26.74283,12.66915 -37.15016,43.18701 -23.7682,69.69652 3.93848,7.80208 14.01575,18.26836 21.13307,21.94886 13.75154,7.1112 31.06797,7.44376 45.14222,0.86695 z m 208.91016,-2.55495 c 10.01531,-4.93052 17.09948,-12.23784 22.00347,-22.69657 2.93469,-6.25881 3.51356,-9.36515 3.51356,-18.85472 0,-10.1304 -0.47091,-12.3179 -4.34624,-20.18984 -5.06488,-10.28824 -12.3494,-17.38874 -22.70159,-22.12813 -8.9708,-4.10696 -22.5845,-5.35485 -30.22968,-2.77099 -4.53888,1.53404 -5.42294,2.48634 -6.3168,6.80438 -2.48377,11.9988 -11.76052,24.86046 -22.34445,30.97929 l -6.91893,4 0.61922,7.48454 c 0.85832,10.37432 5.14071,19.26744 13.29923,27.61818 11.10295,11.3645 20.29848,15.12914 35.23237,14.42409 7.50395,-0.35428 11.51458,-1.384 18.18984,-4.67023 z m -434.32882,-21.2815 c 3.0181,-1.52888 8.22525,-3.46916 11.57142,-4.31174 l 6.08395,-1.53196 0.0247,-11.53236 c 0.038,-17.74254 5.36396,-30.59775 17.6421,-42.5829 6.17603,-6.02864 22.26179,-14.93532 27.03614,-14.96987 3.23509,-0.0235 7.11185,-2.13304 5.98696,-3.25792 -0.41616,-0.41617 -2.90452,0.14076 -5.52968,1.23763 -11.14763,4.65777 -27.98188,3.7592 -38.86652,-2.07463 l -5.01135,-2.68592 1.12072,4.40063 c 0.6164,2.42035 1.12072,9.81485 1.12072,16.43224 0,10.93767 -0.40336,12.85064 -4.43633,21.03951 -5.52699,11.22244 -14.64099,20.44343 -25.1169,25.41174 l -8.04662,3.8162 1.14322,6.11939 c 0.62878,3.36565 0.74922,8.2197 0.26763,10.78676 l -0.87561,4.66737 5.19897,-4.0922 c 2.85944,-2.25071 7.66833,-5.34309 10.68645,-6.87197 z m 355.20777,-6.41894 c 4.75669,-3.14782 5.30475,-4.07765 5.30475,-9 v -5.48948 H 827 815.33333 l 2.96558,8.66667 c 1.63106,4.76667 2.98106,8.81667 3,9 0.1694,1.64041 7.83338,-0.37815 12.06301,-3.17719 z M 467.05397,611.32371 c 19.67144,-9.70569 30.22007,-32.84514 24.3525,-53.41958 -2.33288,-8.18017 -10.15035,-21.50581 -13.33276,-22.72703 -0.99835,-0.3831 -4.18479,0.51235 -7.08098,1.98987 -13.13277,6.69984 -29.93112,6.4508 -45.81906,-0.67929 l -7.93611,-3.56151 -4.02641,3.85755 c -2.21454,2.12165 -5.94298,7.75064 -8.28546,12.50886 -3.85845,7.83766 -4.25341,9.78258 -4.1994,20.67936 0.0704,14.18972 2.67636,21.21326 11.3707,30.64548 10.67945,11.58584 20.44689,15.57555 36.56968,14.93763 8.48404,-0.3357 12.24646,-1.20151 18.3873,-4.23134 z m 376.21528,-9.82469 c 8.88684,-3.93106 17.18407,-12.34958 21.37436,-21.68681 3.27887,-7.30628 3.60792,-9.33748 3.07746,-18.99663 -0.7054,-12.8445 -3.73746,-19.67262 -12.53051,-28.2185 -5.89839,-5.73258 -20.6974,-12.74326 -21.54328,-10.20562 -1.62449,4.87351 -9.31105,14.32931 -14.92925,18.36558 -3.69492,2.65453 -6.71803,5.70792 -6.71803,6.78528 0,6.4472 -11.49567,22.86681 -20.48956,29.26589 -3.73051,2.65423 -3.77243,2.81756 -1.73483,6.75787 1.14846,2.22085 3.66819,5.07322 5.59943,6.33862 1.93123,1.26539 5.85119,4.41463 8.711,6.9983 2.85981,2.58368 7.76039,5.53488 10.89015,6.55822 7.29876,2.38649 20.5378,1.46834 28.29306,-1.9622 z M 618.24956,589.34168 c 10.86169,-6.22943 18.37181,-18.26951 20.00681,-32.07452 l 0.7971,-6.7302 -7.64243,-6.81159 c -8.42324,-7.50751 -12.42199,-13.17093 -16.03563,-22.71124 -2.03104,-5.36211 -3.12422,-6.52215 -7.21782,-7.65923 -7.89058,-2.19178 -19.42016,-1.5934 -27.49252,1.42686 -14.2462,5.33018 -25.9984,21.57404 -25.9984,35.9349 0,4.94554 0.24814,5.28332 3.88121,5.28332 6.13815,0 19.50105,4.65895 26.80373,9.34506 7.89531,5.06641 15.62555,13.50204 20.09708,21.93097 1.76736,3.33152 3.81443,6.05168 4.54902,6.0448 0.7346,-0.007 4.44792,-1.79749 8.25185,-3.97913 z m 127.80625,-3.73032 c -0.31754,-0.31756 -3.58265,-1.96974 -7.25577,-3.67152 l -6.6784,-3.09415 2.81305,5.79009 2.81304,5.79011 4.44272,-2.11859 c 2.44351,-1.16522 4.18291,-2.3784 3.86536,-2.69594 z m 32.20867,-9.82484 c 9.20531,-3.44415 19.62995,-13.30639 24.43828,-23.11987 2.79984,-5.71428 3.26853,-8.57145 3.28084,-20 0.0133,-12.06313 -0.34381,-14.01363 -3.74521,-20.47436 -4.53747,-8.6186 -13.30966,-17.43392 -20.63627,-20.73777 l -5.38539,-2.42847 -5.77502,5.56032 c -3.17628,3.05817 -9.66184,7.47731 -14.41238,9.82029 -7.99945,3.94539 -9.63844,4.25999 -22.19314,4.25999 h -13.55583 l -3.59901,11.763 c -3.22082,10.52691 -3.4549,12.58112 -2.22766,19.54833 3.36444,19.10019 18.2662,34.82303 36.68638,38.70775 7.6369,1.61059 18.04397,0.49821 27.12441,-2.89921 z M 280.66667,556.09625 c 2.93333,-1.28125 6.1568,-3.32707 7.16325,-4.54624 1.00647,-1.21919 2.68627,-2.21669 3.73288,-2.21669 3.44985,0 9.16712,3.71448 11.00605,7.15057 l 1.8079,3.37808 4.90428,-2.50197 c 2.69734,-1.37608 7.46934,-4.64503 10.60444,-7.26432 3.13509,-2.6193 6.04036,-4.76236 6.45616,-4.76236 1.06444,0 9.65606,9.78613 9.65733,11 0.003,2.39648 4.06195,0.61548 9.47999,-4.15916 3.72009,-3.27832 7.52914,-8.6275 10.44826,-14.67279 2.52664,-5.23249 5.00416,-9.06087 5.5056,-8.50751 0.50144,0.55338 1.63255,3.26164 2.51358,6.0184 0.88102,2.75675 2.1649,4.6643 2.85309,4.23898 0.68817,-0.42532 2.74992,-3.73084 4.58167,-7.34562 1.83174,-3.61477 3.91132,-6.5723 4.62128,-6.5723 0.70997,0 4.34854,1.88142 8.08573,4.18093 l 6.79489,4.18095 7.3811,-7.18095 c 7.97028,-7.75413 11.89786,-15.15071 15.79118,-29.73849 l 2.46186,-9.22423 2.53773,7.61322 c 2.95605,8.86814 4.41461,8.55337 8.12056,-1.75255 1.33412,-3.71005 2.90948,-6.74555 3.5008,-6.74555 2.48484,0 19.31195,8.30462 24.77153,12.22539 l 5.91348,4.24674 4.10814,-3.90273 c 8.155,-7.74726 10.37749,-15.21769 7.07138,-23.76897 -0.84817,-2.1938 -0.52025,-2.41769 2.44942,-1.67235 1.88578,0.47331 4.23444,1.16914 5.21924,1.54631 1.23432,0.47273 2.59169,-1.82551 4.36957,-7.39836 2.35211,-7.37283 2.39943,-8.40052 0.53768,-11.68008 -1.28923,-2.27103 -1.82449,-5.6306 -1.45276,-9.1182 0.75488,-7.08239 -2.50673,-14.44669 -11.43159,-25.81108 l -6.80624,-8.66667 2.9536,-2.30368 c 4.21938,-3.29093 5.66938,-2.99601 14.60408,2.97035 4.78551,3.19564 9.55474,5.33333 11.89875,5.33333 2.48407,0 4.98372,1.20555 6.84807,3.30274 2.24753,2.52824 5.12474,3.6387 12.26937,4.7354 5.13333,0.78797 10.68333,1.76678 12.33333,2.17514 2.74916,0.6804 3,0.27892 3,-4.80161 0,-9.20933 6.9877,-20.07833 12.9084,-20.07833 3.04496,0 3.09199,-0.19616 2.24136,-9.34855 -1.00064,-10.7665 1.04732,-14.65145 7.72356,-14.65145 2.08634,0 3.79074,-0.15 3.78754,-0.33333 -0.003,-0.18334 -1.49054,-4.53334 -3.30522,-9.66667 -1.81466,-5.13333 -3.31205,-11.61124 -3.32752,-14.39535 -0.0236,-4.24158 0.61882,-5.43014 3.96346,-7.33333 2.19536,-1.24923 3.99536,-2.95669 4,-3.79437 0.004,-0.83767 -3.74158,-4.97506 -8.32491,-9.19419 -12.53521,-11.53913 -14.12391,-15.90251 -8.90621,-24.461 l 2.75048,-4.51157 -3.95602,-4.1551 c -2.17581,-2.2853 -5.20288,-6.24264 -6.72682,-8.79408 l -2.7708,-4.63898 5.97134,-5.4823 c 3.32607,-3.05365 5.97136,-6.68601 5.97136,-8.1995 0,-1.64028 -3.75022,-6.255 -9.46213,-11.64332 -10.14481,-9.57009 -16.54247,-14.0506 -20.07409,-14.05859 -1.24648,-0.003 -2.80832,-1.74166 -3.59732,-4.00498 -1.0642,-3.05278 -2.21032,-4 -4.83992,-4 -5.07618,0 -11.87887,3.21078 -14.87632,7.02145 l -2.63087,3.3446 -7.74579,-3.26641 -7.74578,-3.2664 -9.51388,4.6489 c -5.23264,2.5569 -14.88926,6.30422 -21.45912,8.32738 l -11.94524,3.67846 -18.72143,-3.08497 C 387.48116,255.2363 384,253.72897 384,248.03199 c 0,-5.98998 2.5316,-10.71785 9.79851,-18.29912 5.05809,-5.27689 8.18336,-7.32772 13.07873,-8.58236 5.69079,-1.4585 6.92947,-2.46865 10.74299,-8.76092 3.08021,-5.08233 4.89124,-6.87086 6.34514,-6.26636 4.84199,2.01323 7.1071,2.10971 12.70878,0.54134 7.33237,-2.05294 9.08432,-3.953 7.52332,-8.15936 -1.04296,-2.8104 -0.0613,-4.2458 8.61329,-12.59502 9.65808,-9.29578 16.21844,-19.97162 14.70165,-23.92433 -0.7907,-2.06054 -8.92324,-4.63393 -14.67961,-4.64509 l -3.83387,-0.008 0.5997,-11.42571 0.59969,-11.42569 -4.93471,-2.51751 c -4.53514,-2.31309 -6.59694,-4.85286 -6.59694,-8.12569 0,-0.70238 3.9,-5.42956 8.66666,-10.50484 C 452.1,108.25805 456,103.5163 456,102.7961 c 0,-0.72019 -2.50631,-1.49394 -5.56959,-1.71944 -5.08992,-0.37469 -5.82081,-0.91043 -8.48673,-6.220727 -1.60443,-3.195902 -3.64115,-9.045902 -4.52604,-12.999999 -0.88488,-3.954099 -1.83763,-7.18927 -2.11719,-7.18927 -0.27957,0 -1.99229,0.67615 -3.80606,1.502555 -5.8134,2.648763 -9.39696,0.567295 -14.04851,-8.159897 -4.07388,-7.643392 -4.42152,-7.94412 -7.0528,-6.101104 -2.45273,1.717965 -3.54296,1.648875 -9.58039,-0.607132 -4.16734,-1.557214 -8.66844,-4.603808 -11.59188,-7.846045 l -4.77918,-5.300341 -8.88748,8.95611 c -6.27191,6.320337 -8.88748,9.951565 -8.88748,12.338572 0,2.190605 -1.37007,4.39539 -3.88822,6.257141 -2.41553,1.785877 -4.97842,5.788528 -6.76661,10.567885 -3.67973,9.834964 -4.76868,11.058698 -9.84176,11.059956 l -4.17008,0.001 0.46507,-12.756483 c 0.59161,-16.227502 -0.32716,-20.903095 -5.1975,-26.450109 -2.50046,-2.847867 -3.93424,-5.949362 -3.93424,-8.510411 0,-3.257808 -1.21298,-4.930896 -6.33333,-8.735662 l -6.33333,-4.706097 -3.62134,3.451042 -3.62134,3.451041 -1.37786,-3.872692 c -0.75782,-2.129981 -1.86666,-4.772693 -2.46408,-5.872693 -1.46088,-2.689878 -12.3986,-7.879819 -17.52506,-8.315633 -3.85222,-0.327486 -4.3317,0.141858 -7.14812,6.997113 -1.66042,4.041482 -5.31807,11.073041 -8.12812,15.625689 -5.57931,9.039196 -5.29287,8.989084 -14.03979,2.456137 -7.0312,-5.251497 -8.31216,-4.634215 -6.02495,2.90336 1.05699,3.483334 1.92828,6.856218 1.93623,7.495299 0.008,0.63908 -3.13557,-1.514953 -6.98557,-4.786743 -13.4016,-11.388883 -19.09,-14.115154 -33.88332,-16.239207 l -5.54998,-0.796878 -3.78336,8.016771 -3.78334,8.016769 -7.78334,-4.125224 c -4.28084,-2.268873 -8.08841,-3.820156 -8.46126,-3.447293 -0.37287,0.372861 0.18658,3.627106 1.24324,7.231657 l 1.92116,6.553726 -8.79323,-5.147903 C 177.95696,52.939625 171.9,50.036224 169.33333,49.318969 c -6.24061,-1.743938 -16.40461,-1.719002 -15.31898,0.03759 0.46112,0.746104 0.42508,4.664649 -0.0801,8.707878 l -0.91849,7.351325 -9.72599,-0.881345 c -13.91124,-1.260605 -16.10328,-0.458975 -16.99864,6.216432 -1.07933,8.047018 -4.00239,10.585885 -12.16446,10.565624 -6.20556,-0.0154 -29.270733,5.829973 -31.902697,8.085061 -1.441344,1.234953 12.750384,23.252926 15.722946,24.393606 1.249196,0.47934 4.091151,0.87152 6.315521,0.87152 h 4.04429 l -2.32595,3.66667 c -1.27927,2.01667 -3.74801,5.19922 -5.48609,7.07235 l -3.160143,3.40567 4.332743,4.11172 c 2.38301,2.26145 6.28275,5.0943 8.66608,6.29523 2.38334,1.20094 4.33334,2.58527 4.33334,3.07631 0,0.49104 -1.60155,2.56445 -3.55899,4.60759 l -3.55899,3.71477 6.39604,2.82928 c 3.91861,1.73339 10.50388,3.11083 17.0014,3.55617 l 10.60536,0.72691 -6.10908,3.35955 c -3.35999,1.84774 -6.10908,3.76233 -6.10908,4.25463 0,1.35108 6.39527,3.98706 9.7294,4.01023 5.52763,0.0384 6.76132,2.01803 2.85339,4.5786 l -3.57632,2.34331 8.49676,5.39752 c 15.10623,9.59613 26.3292,14.21786 38.53267,15.86812 10.90925,1.47525 29.01905,7.39149 41.15937,13.44625 8.14665,4.06299 11.22335,9.30137 9.99205,17.01245 -0.52694,3.3 -0.96513,7.93828 -0.97374,10.30728 -0.0136,3.72784 -0.6381,4.51271 -4.64235,5.83423 -11.66867,3.85101 -24.85697,-0.42804 -51.57123,-16.73269 -11.31749,-6.90747 -14.7651,-8.47096 -15.09776,-6.84687 -0.64414,3.14483 -6.10616,2.56459 -11.71992,-1.24501 -4.28624,-2.90872 -5.21562,-3.1039 -7.05921,-1.48251 -1.34151,1.17981 -6.54079,2.10003 -14.12311,2.49963 -8.06917,0.42525 -14.4818,1.61533 -19.57644,3.63302 -7.12389,2.82139 -7.50218,3.19592 -6.33333,6.27024 1.65383,4.3499 1.5807,13.30719 -0.13481,16.51266 -0.75785,1.41605 -3.82141,3.82122 -6.807907,5.34482 l -5.429995,2.77018 0.916644,7.33657 0.916644,7.33657 -5.297592,-3.0489 c -4.607933,-2.65199 -5.769161,-2.83406 -8.919945,-1.39846 l -3.622355,1.65046 3.144545,3.16973 c 1.729499,1.74336 4.189572,4.96075 5.466828,7.14974 l 2.322284,3.98002 -4.608845,0.86462 c -6.198961,1.16294 -6.671321,2.46803 -2.631095,7.26958 l 3.42246,4.06736 -3.746877,0.8459 c -10.044672,2.26772 -13.370744,3.34282 -15.770375,5.09747 -2.505077,1.83176 -2.514337,2.01008 -0.235144,4.52856 1.304943,1.44195 2.709471,4.69747 3.121171,7.23448 0.680724,4.1948 0.373537,4.76809 -3.390324,6.32713 -4.816849,1.9952 -4.769896,1.85495 -2.023944,6.0458 2.577136,3.9332 1.749124,5.53686 -3.448261,6.67839 -5.463898,1.20007 -5.851808,2.42327 -2.717095,8.56783 1.494403,2.92926 2.717095,5.63442 2.717095,6.01148 0,0.37705 -1.835843,1.63489 -4.07965,2.79521 -7.053177,3.64735 -14.887712,11.70577 -18.107976,18.62548 l -3.102506,6.66667 7.645066,0.77609 c 9.180995,0.93203 15.756587,2.97864 25.940376,8.0738 4.620262,2.31161 9.753072,3.81677 13.015758,3.81677 h 5.387112 l -0.83147,5.19972 -0.831469,5.19973 11.149045,2.50298 11.149047,2.50298 0.66667,5.2973 c 0.66,5.24436 0.71823,5.2928 5.82796,4.8479 2.83871,-0.24716 7.56415,-1.29716 10.50097,-2.33333 6.6314,-2.33969 6.06822,-2.43479 6.60999,1.11605 0.25174,1.65 1.04348,2.91459 1.7594,2.81019 0.71592,-0.1044 3.85168,-0.60715 6.96834,-1.1172 L 144,410.43225 v 5.126 c 0,2.81931 -0.56608,7.09979 -1.25795,9.5122 -1.15716,4.03479 -0.97022,4.50346 2.33334,5.84979 1.9752,0.80497 7.01552,1.52721 11.2007,1.605 5.8366,0.1084 8.04218,0.73329 9.46692,2.68189 1.9125,2.61571 6.61132,2.6164 21.25536,0.003 l 4.99836,-0.89199 -0.84142,6.13888 c -0.78624,5.7363 1.22886,14.28131 3.33978,14.16222 0.46103,-0.026 7.13007,-1.77966 14.82008,-3.897 11.1683,-3.07504 14.70291,-4.65671 17.56512,-7.8601 l 3.58328,-4.01037 0.88542,5.24071 c 0.48697,2.8824 1.32808,5.24072 1.86912,5.24072 1.4262,0 5.75765,-5.02291 10.93338,-12.67875 3.44123,-5.09017 5.20432,-6.57772 7.41251,-6.25404 5.45365,0.79939 14.09701,-18.61201 18.40909,-41.34348 2.39455,-12.62304 5.73128,-17.79837 15.9403,-24.72373 8.64264,-5.86279 15.16577,-5.93827 19.96809,-0.23103 4.30921,5.1212 4.45021,10.81204 0.45185,18.23699 -6.43488,11.94957 -18.45518,27.92306 -24.3185,32.31626 -8.63699,6.47143 -15.66403,16.11094 -22.66323,31.08882 -3.31005,7.0833 -6.01827,13.48853 -6.01827,14.23384 0,0.74532 1.87642,1.35512 4.16982,1.35512 h 4.16981 l -5.50315,5.97021 c -3.02673,3.28407 -5.50314,6.54071 -5.50314,7.23744 0,0.72632 3.27101,0.99808 7.66666,0.63699 7.6485,-0.62832 7.6589,-0.62415 4.38459,1.763 -10.56181,7.70012 -15.72281,12.57857 -18.40235,17.39486 l -3.01776,5.42421 5.3511,0.90407 c 2.9431,0.49724 5.34858,1.30132 5.3455,1.78687 -0.003,0.48553 -1.50306,3.83449 -3.33333,7.4421 -4.32936,8.53356 -4.45752,14.07931 -0.32775,14.18186 1.65,0.0409 5.6771,1.15985 8.9491,2.48638 l 5.94908,2.41188 -4.22034,2.18243 c -5.58637,2.88883 -7.21941,9.00477 -6.14313,23.00681 l 0.8334,10.84228 10.81595,-3.28924 c 5.94877,-1.80908 13.21594,-4.33752 16.14928,-5.61877 z m 371.39034,-1.18837 c -3.05636,-1.01879 -5.73696,-1.63984 -5.95689,-1.38012 -0.21995,0.25972 -0.71653,2.95646 -1.10353,5.99276 l -0.70364,5.52054 6.66054,-4.14042 6.66055,-4.14042 z m 58.6563,-2.33771 c -1.42492,-3.6136 -2.94194,-8.26868 -3.37115,-10.34461 l -0.78039,-3.77444 -4.95953,4.4411 c -2.72773,2.4426 -6.43309,5.40031 -8.23413,6.5727 l -3.27463,2.13158 6.61993,1.62162 c 3.64096,0.89189 8.71992,2.72837 11.28659,4.08108 2.56667,1.3527 4.81008,2.32034 4.98536,2.1503 0.17529,-0.17002 -0.84713,-3.26572 -2.27205,-6.87933 z m 177.25192,-2.24523 c 18.93585,-9.05301 29.42496,-33.02078 23.4483,-53.57973 -2.79976,-9.63082 -6.7399,-15.95509 -14.06132,-22.56954 -9.40558,-8.49739 -16.03672,-10.8402 -30.68554,-10.84135 -11.06944,-8.8e-4 -13.59139,0.45355 -20,3.60376 -4.03334,1.98263 -9.98924,6.31324 -13.23535,9.6236 l -5.90201,6.01884 3.76105,6.91029 c 2.70681,4.97331 3.94189,9.43765 4.40619,15.92671 l 0.64512,9.0164 7.7206,2.81506 c 13.35752,4.8704 25.27246,17.77607 29.3922,31.83618 1.53544,5.24025 1.99041,5.678 5.11544,4.92177 1.88654,-0.45655 6.11444,-2.11343 9.39532,-3.68199 z m -347.20711,-2.83125 c 6.2348,-2.90321 6.98583,-3.77141 9.69871,-11.21173 1.81577,-4.97992 5.34798,-10.74244 9.2342,-15.06486 3.46149,-3.85001 5.62849,-7.22172 4.81557,-7.49269 -0.81293,-0.27099 -4.15331,-2.18928 -7.42305,-4.26289 -11.41927,-7.2419 -19.55146,-20.3344 -21.75422,-35.02348 -0.93273,-6.21988 -0.93868,-6.22579 -7.1344,-7.07791 -12.42656,-1.70909 -25.49058,3.2946 -34.70701,13.29324 -8.49196,9.2127 -11.45184,16.64687 -11.43488,28.72039 0.012,8.25146 0.6734,11.388 3.71435,17.60348 4.37672,8.9457 14.57818,18.64394 22.59872,21.48396 9.11908,3.22901 24.35725,2.77386 32.39201,-0.96751 z m 144.57521,-2.08232 c 14.09,-7.20061 24.33203,-20.40056 26.15634,-33.71035 0.80613,-5.88132 0.78969,-5.91046 -5.67394,-10.06249 -13.1806,-8.46681 -20.49382,-18.62562 -24.35565,-33.83246 l -2.48716,-9.7938 -5.8198,-1.05624 c -18.59336,-3.3745 -39.94981,7.67065 -48.95243,25.31724 -4.04917,7.93702 -5.81286,19.89239 -4.19394,28.42894 3.3681,17.75999 14.16324,30.27528 31.78549,36.8504 7.63336,2.84812 26.08272,1.67032 33.54109,-2.14124 z m -216,-15.54764 c 4.65896,-2.54484 7.14338,-4.70915 6.81246,-5.93471 -0.28648,-1.06097 -0.80558,-6.762 -1.15355,-12.66894 l -0.63268,-10.73991 -6.38557,6.69395 -6.38558,6.69394 -6.09746,-5.62044 c -6.74419,-6.21657 -20.94327,-13.78038 -21.71219,-11.56601 -1.97099,5.6762 -6.18505,11.05568 -10.58423,13.51135 -2.857,1.5948 -5.94453,3.56845 -6.8612,4.3859 -4.80493,4.28483 1.2574,10.9781 15.30694,16.89999 6.54348,2.75809 9.38662,3.17599 19.0264,2.79659 9.5826,-0.37715 12.46616,-1.06483 18.66666,-4.45171 z m 353.88384,-3.74429 c 4.60835,-7.10712 6.57599,-14.74247 5.61186,-21.77659 -0.77854,-5.67997 -5.03868,-15.49101 -7.3456,-16.91677 -0.67175,-0.41516 -4.43694,0.93665 -8.3671,3.00404 -3.93014,2.06737 -8.52649,4.11995 -10.21408,4.56125 l -3.06836,0.8024 4.03972,5.57668 c 4.92283,6.79576 8.82506,16.94676 10.08507,26.23465 0.84813,6.25179 1.17869,6.79019 3.34013,5.44034 1.31938,-0.82395 3.98263,-3.94066 5.91836,-6.926 z M 580.16569,507.21718 c 3.20887,-1.16388 10.46852,-2.2566 16.13256,-2.42828 12.35276,-0.3744 14.90968,-2.12601 16.94294,-11.6067 1.84172,-8.58768 4.38545,-14.52344 9.26021,-21.60868 3.67011,-5.33431 3.88,-6.24824 2.67092,-11.62948 -1.89296,-8.42492 -7.61653,-18.21252 -13.69072,-23.41179 -16.17631,-13.84632 -41.87573,-12.8048 -56.99016,2.30963 -20.37193,20.37193 -14.42011,55.28672 11.48063,67.3479 7.98758,3.71959 6.97349,3.64619 14.19362,1.0274 z m 173.94902,-9.84085 c 9.73282,-4.79145 16.84114,-12.17637 21.70506,-22.54966 4.74396,-10.11743 5.02411,-28.11518 0.58812,-37.78299 -4.03821,-8.80087 -14.05025,-19.01059 -22.9085,-23.3608 -6.59226,-3.2374 -9.03158,-3.68272 -20.16606,-3.68144 -11.36125,10e-4 -13.46234,0.4042 -20.3873,3.90944 -9.43348,4.775 -17.36408,13.12707 -22.01874,23.18891 -4.4245,9.56434 -4.97458,25.52913 -1.1974,34.75185 10.83764,26.46224 39.44411,37.80297 64.38482,25.52469 z m 53.49452,-12.17657 c 8.58186,-4.15441 17.21114,-13.1104 21.45865,-22.27111 2.91872,-6.29489 3.52829,-9.53578 3.56024,-18.92866 0.0324,-9.53616 -0.52395,-12.53324 -3.50867,-18.9002 -11.98594,-25.56826 -42.37952,-35.45558 -66.24354,-21.54964 l -5.79076,3.37436 6.6382,4.47042 c 8.15089,5.48914 13.92578,12.30952 18.57542,21.93839 2.8688,5.94092 3.64735,9.75807 4.10038,20.10347 0.49437,11.28942 0.17432,13.72304 -2.76023,20.98822 l -3.31943,8.21808 5.50692,3.2839 c 6.61336,3.94368 12.54295,3.74572 21.78282,-0.72723 z M 505.29541,462.57029 c 8.63511,-3.91696 14.45668,-8.75345 18.82234,-15.63738 l 3.83729,-6.05078 -4.4104,-2.99694 c -2.42572,-1.64832 -7.81772,-3.62683 -11.98221,-4.39667 -7.60886,-1.40657 -11.8548,-3.08516 -15.56243,-6.15244 -1.1,-0.91001 -3.5,-1.95576 -5.33333,-2.32387 -1.83334,-0.36812 -4.4645,-1.1418 -5.84703,-1.71929 -2.14513,-0.89604 -1.96787,-0.11853 1.20897,5.30227 2.50871,4.2808 4.10559,9.45878 4.89687,15.87853 2.66567,21.62656 2.4622,20.86179 5.54211,20.83032 1.57616,-0.0161 5.54868,-1.24629 8.82782,-2.73375 z m 339.1556,-2.29788 c 3.54807,-1.61986 8.84948,-3.32874 11.78092,-3.7975 2.93144,-0.46875 5.67707,-1.75699 6.10139,-2.86274 0.42431,-1.10574 0.11533,-10.77576 -0.68676,-21.48889 l -1.45823,-19.47845 -12.47805,-12.65575 c -12.92005,-13.10407 -25.852,-31.0513 -33.92459,-47.08133 l -4.66052,-9.25455 -6.89592,0.82847 c -3.79276,0.45567 -8.18025,0.83369 -9.75,0.84007 -1.56974,0.007 -8.3323,3.60878 -15.02793,8.00536 -6.69561,4.39658 -14.34091,8.89922 -16.98952,10.00589 l -4.81568,2.01212 6.15525,6.58047 c 3.38539,3.61925 7.45936,9.2647 9.05326,12.54544 l 2.89801,5.96495 13.45701,0.44868 c 11.7332,0.39119 14.56768,0.97503 22.1275,4.55775 10.96104,5.19461 19.99541,14.18705 25.51273,25.39432 5.23977,10.64349 6.65797,26.2508 3.35349,36.90509 -1.0932,3.52467 -1.58617,6.19864 -1.0955,5.94216 0.49068,-0.25648 3.79509,-1.79168 7.34314,-3.41156 z m -306.87725,-6.55257 c 1.23224,-4.18465 1.94683,-8.08353 1.58799,-8.66416 -0.91099,-1.474 -5.82842,-1.32592 -5.82842,0.17551 0,0.67717 -2.1,3.98236 -4.66666,7.34488 C 526.1,455.93857 524,458.94652 524,459.26037 c 0,0.31387 1.95,0.81266 4.33333,1.10842 2.38334,0.29577 4.93334,0.63266 5.66667,0.74865 0.73333,0.116 2.34153,-3.21293 3.57376,-7.3976 z m 99.01441,4.23775 c 2.48222,-1.87746 2.44127,-1.9576 -1,-1.9576 -2.3006,0 -3.58817,0.71768 -3.58817,2 0,2.48849 1.25739,2.47686 4.58817,-0.0424 z m 241.98116,-10.9576 c -0.1667,-15.41364 -1.74614,-23.02867 -5.35121,-25.8001 -1.76996,-1.36066 -3.65564,-2.48728 -4.1904,-2.50358 -0.94013,-0.0287 0.004,32.26398 1.04239,35.63701 0.28208,0.91667 2.33169,1.66667 4.55472,1.66667 h 4.04184 z m -198.5258,1.33333 c 0.0239,-1.28333 1.13174,-5.48333 2.46178,-9.33333 1.33004,-3.85 2.06045,-6.99999 1.62313,-6.99996 -0.43731,2e-5 -2.4986,2.13501 -4.58067,4.74442 -2.08205,2.60942 -6.16902,6.47098 -9.08217,8.58124 l -5.29663,3.83686 5.08219,0.52792 c 2.79519,0.29034 6.13217,0.62877 7.41551,0.75205 1.4052,0.13497 2.35065,-0.704 2.37686,-2.1092 z m -22.91298,-3.69469 c 29.45028,-13.43264 36.89361,-52.20407 14.33106,-74.64879 -10.4624,-10.40776 -17.47237,-13.24838 -32.79494,-13.28933 -10.9025,-0.0292 -13.68803,0.44785 -20,3.42477 -4.03334,1.90224 -9.25143,5.26316 -11.59576,7.46871 l -4.26242,4.01008 1.92908,6.40987 c 3.55866,11.82446 1.55972,31.27526 -4.1302,40.18951 -1.73548,2.71892 -1.45838,3.05291 5.25963,6.33974 6.37325,3.11813 9.78972,6.29864 23.60027,21.97034 2.58065,2.92843 3.48834,3.11616 11.46485,2.37131 4.90169,-0.45773 11.934,-2.30116 16.19843,-4.24621 z m -108.38,-10.12311 c 8.73548,-9.25972 20.7728,-14.46636 33.90724,-14.66629 l 9.24544,-0.14074 2.64001,-5.52092 c 11.43701,-23.91757 2.56213,-51.06142 -20.48395,-62.65013 -6.98954,-3.51469 -8.65056,-3.29218 -15.88818,2.12834 -2.40127,1.7984 -2.40996,2.1675 -0.23003,9.76828 1.24604,4.3446 3.41905,9.88356 4.82889,12.30881 1.40986,2.42525 2.56336,4.9324 2.56336,5.57143 0,2.80113 -4.54476,5.35235 -9.53469,5.35235 h -5.34423 l 0.9249,8.63655 c 1.33189,12.43701 0.379,15.10905 -5.56919,15.61661 -3.96517,0.33835 -5.31203,1.26172 -7.41008,5.08018 -3.31597,6.03502 -2.7468,18.14058 0.98107,20.86648 3.59038,2.62534 5.01118,2.26885 9.36944,-2.35095 z m 403.91612,-9.77499 c 20.1415,-5.48021 32.98982,-14.98606 40.25641,-29.78377 3.30487,-6.73004 3.74359,-9.10785 3.74359,-20.2901 0,-11.26119 -0.41627,-13.48038 -3.75152,-20 -4.0223,-7.86263 -15.29323,-20.33278 -21.18227,-23.43606 -1.98025,-1.0435 -6.78025,-1.83154 -10.66667,-1.75118 L 954,329.6255 l 5.96028,1.16784 c 13.11204,2.56914 28.76295,18.21422 32.08847,32.07652 3.67682,15.32672 -2.22419,31.45038 -16.26939,44.45375 -29.67124,27.47034 -75.08615,22.83603 -110.94703,-11.32144 -17.3937,-16.5675 -29.10013,-35.51763 -36.85877,-59.66633 -8.86955,-27.6063 -22.64023,-107.18326 -22.64023,-130.83154 0,-9.00057 3.3893,-20.36249 8.00987,-26.85151 3.72475,-5.23092 15.02116,-11.67742 22.40232,-12.7843 12.42863,-1.86379 33.91052,6.39113 39.89007,15.32868 1.67642,2.50573 3.03108,6.56553 3.03108,9.08393 0,7.09872 -6.5311,18.89628 -15.37972,27.78144 -11.66315,11.71131 -21.60135,16.10444 -42.14627,18.63056 -4.9094,0.60364 -6.09807,1.23239 -5.73615,3.03416 0.25108,1.25 0.82454,5.12273 1.27435,8.60607 0.71844,5.5635 1.20572,6.33333 4.00883,6.33333 6.03356,0 20.14032,-6.15767 30.71322,-13.40644 12.22351,-8.38045 36.41706,-31.74212 39.96782,-38.59356 5.24937,-10.12905 1.2291,-25.97992 -9.24616,-36.45519 C 872.87851,156.96738 849.51037,148 834.66529,148 c -13.05878,0 -26.75812,6.62038 -32.44634,15.68014 -17.06322,27.17692 -18.917,72.35664 -4.99159,121.65318 6.24959,22.1238 16.96867,52.4625 22.26041,63.00466 20.52291,40.88545 52.52671,70.68637 83.45707,77.71251 10.79577,2.45238 38.58488,1.72026 49.72183,-1.30996 z m -256.89856,-6.9648 c 11.5713,-11.57129 29.79677,-17.5453 45.7091,-14.9827 8.0806,1.30134 8.24454,1.26418 15.02448,-3.40534 3.77011,-2.59657 7.59954,-4.72104 8.50986,-4.72104 2.68078,0 1.93282,-2.98602 -2.68666,-10.72565 -13.15238,-22.03592 -45.49286,-26.1773 -64.10145,-8.20854 -6.55936,6.33382 -8.73808,10.68498 -7.47785,14.93419 2.11598,7.13466 1.26614,20.26732 -1.96292,30.33334 -1.40975,4.39462 0.032,3.72913 6.98544,-3.22426 z m -418.04539,-8.71722 c 5.36649,-4.08883 15.23924,-17.26234 22.21879,-29.64719 2.81073,-4.98752 3.05097,-6.30236 1.69525,-9.27785 -2.05864,-4.51823 -5.13771,-4.37771 -12.61603,0.57572 -8.12522,5.38193 -10.03473,8.64619 -12.4232,21.23714 -1.10854,5.84376 -2.86986,13.04647 -3.91405,16.006 -1.04419,2.95955 -1.59992,5.38099 -1.23495,5.38099 0.36498,0 3.18835,-1.92367 6.27419,-4.27481 z m 590.5732,-22.65506 c -1.47121,-2.4219 -3.11452,-6.50346 -3.6518,-9.07013 -2.32484,-11.10608 -17.46572,-35.27244 -25.83119,-41.22918 -2.28045,-1.62382 -4.14626,-2.38482 -4.14626,-1.69111 0,3.02376 4.05878,10.52481 7.35184,13.58696 3.69374,3.43473 11.11776,17.07776 13.79885,25.35797 1.52057,4.69611 13.25049,19.35195 14.49357,18.10888 0.36295,-0.36296 -0.5438,-2.64148 -2.01501,-5.06339 z M 692.37088,371.55894 c 7.47195,-7.47195 18.56079,-12.85036 28.47336,-13.81043 5.92153,-0.57352 11.77843,-2.71845 24.1018,-8.82663 8.95367,-4.43796 17.88136,-9.34637 19.83932,-10.9076 l 3.55992,-2.83858 -9.83931,-5.79362 c -5.41161,-3.18649 -18.26436,-11.29882 -28.56164,-18.02741 l -18.72234,-12.2338 -15.27766,9.14383 c -28.34934,16.96733 -35.08745,21.56524 -44.19753,30.15922 -4.99408,4.71116 -9.08013,9.01407 -9.08013,9.56202 0,0.54794 2.47056,1.32764 5.49013,1.73265 9.39701,1.2604 21.56892,8.24199 29.72144,17.04767 4.10029,4.42882 7.45509,8.6182 7.45509,9.30973 0,2.13859 1.06632,1.45417 7.03755,-4.51705 z m 62.57363,-13.44355 c 4.00198,-1.76987 12.32664,-6.49464 18.49924,-10.49951 16.82744,-10.91784 22.57805,-13.57706 25.46361,-11.77501 1.31439,0.82085 3.56151,1.49245 4.99361,1.49245 2.50883,0 2.5275,-0.22404 0.51159,-6.14038 -2.36836,-6.95078 -4.91616,-8.47083 -20.08619,-11.98371 -10.78528,-2.49752 -19.7598,-7.14675 -35.21796,-18.24459 -18.15157,-13.0315 -31.58873,-25.17229 -31.68853,-28.63131 -0.0488,-1.68928 0.70924,-3 1.73485,-3 1.69658,0 8.86651,-17.06527 8.8517,-21.06804 -0.004,-0.95408 -2.10643,-2.61214 -4.6731,-3.68456 -4.49392,-1.87768 -6.35444,-6.04692 -3.48878,-7.81799 0.64782,-0.40039 7.69782,2.02105 15.66666,5.38097 14.89038,6.27827 36.51399,12.52295 43.36355,12.52295 h 3.86617 l -0.8861,-9 c -0.48736,-4.95 -1.03622,-9.18215 -1.21967,-9.40476 -0.18347,-0.22263 -6.18239,-1.88893 -13.33095,-3.70293 -18.59326,-4.71816 -51.84766,-18.12368 -52.42925,-21.13531 -0.88744,-4.59544 1.86204,-5.04647 9.9508,-1.63232 4.31249,1.82024 7.99199,3.16076 8.17663,2.97892 0.18464,-0.18183 -0.61631,-3.27952 -1.7799,-6.88376 -1.16358,-3.60425 -2.59466,-12.10032 -3.18017,-18.88016 -1.26205,-14.61377 -1.45345,-14.84644 -19.37565,-23.55438 -17.56456,-8.53419 -30.50662,-10.99732 -36.0785,-6.8665 -2.33713,1.73268 -2.40073,2.21766 -0.65577,5 C 683.27508,179.6713 692,206.88414 692,224.17587 c 0,4.26838 0.60487,5.49023 3.33333,6.73339 3.54263,1.61413 4.51467,6.05444 1.57256,7.18344 -0.96844,0.37161 -17.31844,-5.10401 -36.33333,-12.16808 -35.93153,-13.3486 -57.44751,-19.85129 -82.50536,-24.93528 -12.73201,-2.58319 -18.90047,-2.98935 -45.40053,-2.98935 -27.25891,0 -32.20943,0.34538 -44.55004,3.10806 -18.53151,4.14862 -37.09806,10.58048 -53.02362,18.3685 -16.38482,8.01263 -45.13022,27.01956 -43.43188,28.71791 0.75386,0.75385 6.93442,-2.57781 15.92395,-8.58391 27.05684,-18.07728 54.87119,-27.5236 89.86783,-30.52094 55.50525,-4.75383 125.92962,13.7083 185.50746,48.63178 6.39488,3.74856 11.94683,7.6489 12.33767,8.66742 0.98001,2.55389 -0.32253,4.27785 -3.23219,4.27785 -1.48457,0 -2.76689,1.28876 -3.26769,3.28409 -1.31449,5.23739 -24.30311,27.35227 -38.13149,36.68223 -19.38672,13.08014 -32.16048,26.1739 -44.73512,45.85576 l -2.4419,3.82208 7.25518,-4.04391 c 3.99034,-2.22415 9.65517,-4.76488 12.5885,-5.64608 3.94439,-1.18492 7.05412,-3.6972 11.94088,-9.64669 9.20244,-11.20376 22.95282,-21.72983 46.15382,-35.33128 12.59317,-7.38268 19.86836,-12.43691 19.8827,-13.81295 0.012,-1.19353 0.86028,-2.86528 1.88412,-3.715 1.48336,-1.23108 6.56202,1.54779 25,13.67912 33.60275,22.10903 45.91834,28.91665 50.61383,27.97756 4.76908,-0.95381 7.19163,3.17763 3.21132,5.47661 -1.35069,0.78015 -6.24287,3.95428 -10.87151,7.05362 -4.62864,3.09934 -13.38058,8.13537 -19.44876,11.19117 -9.14588,4.60565 -10.57693,5.73533 -8.3664,6.60445 3.83398,1.5074 3.64982,1.53884 11.61118,-1.98205 z M 619.92908,322.79918 c 4.80567,-4.83956 15.22815,-13.25252 23.16105,-18.6955 15.12644,-10.37862 35.1567,-29.29998 36.44315,-34.42562 0.41487,-1.65299 0.41635,-3.88616 0.003,-4.96259 -1.09939,-2.86497 -40.35631,-21.94282 -60.15751,-29.235 C 547.87389,209.14731 480.88353,208.74186 430,234.33427 c -10.7596,5.41166 -25.19447,14.91571 -24.18593,15.92424 0.37745,0.37744 5.07369,1.52488 10.43609,2.54987 9.15276,1.74948 10.36224,1.68669 19.74984,-1.02523 10.30275,-2.97629 23.32869,-8.52976 29.52719,-12.58858 3.38736,-2.21807 3.80205,-2.19139 10.46034,0.67293 6.25368,2.69027 7.15418,2.78256 9.18828,0.94172 3.5807,-3.24048 11.63052,-6.14111 17.70323,-6.37905 4.68273,-0.1835 6.14636,0.42368 9.02191,3.74266 1.88781,2.17894 6.43238,5.85539 10.09905,8.16988 7.53315,4.75514 25.66735,22.60982 26.05895,25.65728 0.68473,5.32859 -0.44891,8.42396 -4.88244,13.33136 l -4.82351,5.33903 3.55803,4.66481 c 1.9569,2.56564 3.97748,4.68388 4.49016,4.7072 0.51268,0.0233 2.0034,0.85501 3.31272,1.8482 2.2476,1.70493 2.13588,2.25775 -2,9.89703 l -4.38058,8.09124 9.96012,10.05401 c 6.05603,6.11311 11.80496,10.65056 14.66667,11.57592 7.00832,2.26621 16.11413,7.23857 21.31616,11.63997 l 4.6096,3.90018 8.6528,-12.7253 c 4.75905,-6.9989 12.58472,-16.68492 17.3904,-21.52446 z m 309.40425,23.13493 c -1.1,-0.23277 -4.23233,-0.78704 -6.96074,-1.23172 -2.72842,-0.44468 -6.77842,-2.33797 -9,-4.20731 -2.22159,-1.86934 -4.03926,-2.79881 -4.03926,-2.06548 0,0.73334 1.84604,2.88667 4.10231,4.7852 3.33695,2.80786 5.38917,3.423 11,3.29719 3.79373,-0.0851 5.99769,-0.34512 4.89769,-0.57788 z M 798.66667,315.31648 c 0,-0.37593 -2.64348,-9.54417 -5.8744,-20.37388 -3.23091,-10.82969 -6.29904,-22.5221 -6.81806,-25.98314 -0.51901,-3.46104 -1.39694,-6.2928 -1.95094,-6.2928 -5.00283,0 -25.93007,-4.74316 -34.84276,-7.89711 -6.1185,-2.16516 -11.18222,-3.82406 -11.25274,-3.68644 -1.7875,3.48852 -8.68042,23.9735 -8.36722,24.86648 0.71396,2.03572 18.12325,15.57712 31.8769,24.79469 10.02922,6.7215 14.99442,9.11454 23.12892,11.14732 5.69698,1.42364 10.70012,2.93044 11.11811,3.34842 0.94576,0.94577 2.98219,0.99798 2.98219,0.0764 z m 43.36168,-90.49129 c 14.72341,-6.7406 31.60942,-27.4516 29.43742,-36.10552 -1.1151,-4.44294 -5.53533,-8.46 -12.7991,-11.63166 -14.44747,-6.30839 -26.57204,-5.51534 -35.74711,2.33818 -8.10433,6.937 -10.30413,14.01239 -10.01525,32.21295 0.13066,8.23487 0.66566,15.66505 1.1888,16.51151 1.6379,2.65017 19.53684,0.51945 27.93524,-3.32546 z M 428,215.19067 c 0,-0.2882 -0.9,-0.52401 -2,-0.52401 -1.1,0 -2,0.58117 -2,1.29149 0,0.71031 0.9,0.94612 2,0.52402 1.1,-0.42212 2,-1.00328 2,-1.2915 z"
       id="path3468" />
  </g>
  <symbol>
</svg>
